


<svg width="628" height="198" viewBox="0 0 628 198" fill="none" xmlns="http://www.w3.org/2000/svg">
<path d="M316.388 632.193C490.802 632.193 632.193 490.803 632.193 316.389C632.193 141.975 490.802 0.583984 316.388 0.583984C141.974 0.583984 0.583618 141.975 0.583618 316.389C0.583618 490.803 141.974 632.193 316.388 632.193Z" fill="#237CF2"/>
<path d="M318.401 575.871C460.598 575.871 575.872 460.597 575.872 318.4C575.872 176.203 460.598 60.9287 318.401 60.9287C176.203 60.9287 60.9293 176.203 60.9293 318.4C60.9293 460.597 176.203 575.871 318.401 575.871Z" fill="#3289FC"/>
<path d="M316.389 503.457C419.704 503.457 503.458 419.704 503.458 316.388C503.458 213.073 419.704 129.319 316.389 129.319C213.074 129.319 129.32 213.073 129.32 316.388C129.32 419.704 213.074 503.457 316.389 503.457Z" fill="#4696FF"/>
</svg>
